<svg xmlns="http://www.w3.org/2000/svg" width="208.546" height="68.271" viewBox="0 0 55.178 18.063">
  <g style="display:inline" transform="translate(-76.6 -78.424)">
    <circle cx="83.727" cy="85.633" r="6.598" style="display:inline;opacity:1;fill:#f7dc1e;stroke:none;stroke-width:.26458332;stroke-linecap:butt;stroke-linejoin:miter;stroke-miterlimit:4;stroke-dasharray:none;stroke-dashoffset:0;stroke-opacity:1;paint-order:markers stroke fill"/>
    <rect width="5.653" height="1.01" x="80.831" y="92.344" rx=".413" ry=".413" style="display:inline;opacity:1;fill:#9e9e9e;stroke:none;stroke-width:1.99999988;stroke-linecap:butt;stroke-linejoin:miter;stroke-miterlimit:4;stroke-dasharray:none;stroke-dashoffset:0;stroke-opacity:1;paint-order:stroke fill markers"/>
    <rect width="5.641" height="1.031" x="80.837" y="93.671" rx=".421" ry=".421" style="display:inline;opacity:1;fill:#767677;stroke:none;stroke-width:1.99999976;stroke-linecap:butt;stroke-linejoin:miter;stroke-miterlimit:4;stroke-dasharray:none;stroke-dashoffset:0;stroke-opacity:1;paint-order:stroke fill markers"/>
    <rect width="3.24" height="1.02" x="82.038" y="95.019" rx=".417" ry=".417" style="display:inline;opacity:1;fill:#616262;stroke:none;stroke-width:1.99999988;stroke-linecap:butt;stroke-linejoin:miter;stroke-miterlimit:4;stroke-dasharray:none;stroke-dashoffset:0;stroke-opacity:1;paint-order:stroke fill markers"/>
    <g style="display:inline;fill:#1a1a1a">
      <path d="M24.39 17.775q-.687 0-1.015.61-.14.25-.14.531 0 .688.609 1 .266.14.547.14.671 0 1-.593.14-.266.14-.547 0-.672-.593-1a1.16 1.16 0 0 0-.547-.14m9.485 1.47q-2.969 0-4.594 4.437-1 2.75-1.218 6.047-.032.39-.032.64c0 .553.03 1.072.057 1.596-.145.079-.29.172-.432.295q-.484.39-4.39 3.375L25 23.229q-.03-1.313-1.047-1.329-1.125 0-1.297 1.766a1 1 0 0 0-.015.172q-.048.672-2.032 13.781l-3.75 2.813q-1.093.812-1.468 1.28-.672.907-.672 2.313 0 1.345 1.078 2.422 1.094 1.078 2.531 1.078 2.89 0 3.61-2.75.093-.343.14-.703l.719-5.172c2.266-1.694 4.073-3.113 5.539-4.328.223 1.466.563 2.8 1.039 3.985q1.812 4.438 5.578 4.593 1.641 0 3.047-1.015 1.125-.86 1.156-1.672 0-.531-.453-.844a.73.73 0 0 0-.422-.14q-.5 0-1.39.609-.922.655-1.438.75-.171.03-.328.031-2.344 0-3.531-2.75-.64-1.485-1.172-4.453 1.938-1.563 3.703-4.078 2.781-3.953 2.781-7.188 0-2.969-2.703-3.14a4 4 0 0 0-.328-.016m.016 2.359q.578 0 .828.687a.9.9 0 0 1 .062.297q0 2.438-2.593 5.984a19.5 19.5 0 0 1-1.876 2.25q.172-6.405 1.954-8.422.702-.78 1.625-.796M20.109 40.916l-.265 1.906q-.235 1.781-.985 2.11a1.4 1.4 0 0 1-.53.093q-.736 0-1-.687a1.3 1.3 0 0 1-.095-.5q.015-.75 1.141-1.594z" style="fill:#1a1a1a;stroke-width:1.00000012" transform="translate(76.6 78.424)scale(.26458)"/>
      <path d="M84.998 83.663a.694.694 0 0 1-.694.695.694.694 0 0 1-.694-.695.694.694 0 0 1 .694-.694.694.694 0 0 1 .694.694" style="opacity:1;fill:#1a1a1a;stroke:none;stroke-width:.26458332;stroke-linecap:butt;stroke-linejoin:miter;stroke-miterlimit:4;stroke-dasharray:none;stroke-dashoffset:0;stroke-opacity:1;paint-order:markers stroke fill" transform="translate(-1.218 -.448)"/>
    </g>
  </g>
  <g fill="#1a1a1a" class="jp-icon3" style="display:inline">
    <path d="M189.588 7.488q-1.147 0-1.522 1.375a7.5 7.5 0 0 0-.209 1.084l-.916 6.438q-.937 0-2.103-.041h-.21q-1.186 0-1.562.875a1.8 1.8 0 0 0-.125.687q0 1.376 1.438 1.5h2.125q-1.646 13.209-1.647 13.813c0 .423.031.825.079 1.215-.432.063-.967.321-1.62.804q-1.146.835-1.75.98a2.5 2.5 0 0 1-.437.042q-.98 0-1.563-1.25a4.1 4.1 0 0 1-.396-1.791q0-1.439.646-7.356.21-1.999.21-2.603 0-1.584-.96-1.813a2.6 2.6 0 0 0-.459-.04q-1.373-.001-1.707 2.081l-.043.375q-.103.898-.353 2.793-.563 4.063-.563 5.457c0 1.23.126 2.301.364 3.23-.802.568-1.434.897-1.885.98a2.4 2.4 0 0 1-.438.04q-3.124 0-4.707-3.666-.855-1.98-1.562-5.937 2.583-2.084 4.937-5.438 3.708-5.271 3.707-9.584 0-3.958-3.603-4.187a5 5 0 0 0-.438-.02q-3.958 0-6.125 5.916-1.333 3.667-1.625 8.063-.04.52-.04.853 0 6.46 1.79 10.918 2.416 5.917 7.438 6.125c1.425 0 2.749-.439 3.974-1.3q1.157 1.193 2.9 1.195 2.106 0 4.022-1.332c.445-.339.78-.667 1.045-.99q.219.422.496.802 1.313 1.709 3.375 1.729 2.104 0 3.979-1.354.38-.287.67-.57c.645 1.061 1.6 1.726 2.873 1.986q.645.126 1.394.125 1.98 0 4.584-1.125 2.813-1.208 3.375-2.562.105-.292.104-.541 0-.75-.666-1.147a1.13 1.13 0 0 0-.563-.166q-.48 0-1.646.77-1.792 1.168-3.104 1.48-.75.166-1.521.166-1.75-.145-2.313-1-.416-.667-.416-1.875 0-.562.041-.875.542.105 1.106.104 2.978 0 5.228-1.875 2.292-1.896 2.5-4.688.022-.249.022-.478 0-3.084-2.75-3.875a6 6 0 0 0-1.606-.21q-3.104 0-5.312 3.397-1.812 2.772-2.25 6.334a14 14 0 0 0-.082 1.5c0 .618.046 1.177.113 1.71-.352.12-.748.349-1.197.706q-1.042.813-1.604.96a2 2 0 0 1-.48.062q-.958 0-1.541-1.25a4.1 4.1 0 0 1-.397-1.793q0-1.52 1.625-14.02h2.584q1.084 0 1.563-.793.187-.333.187-.707 0-.855-.728-1.293a2 2 0 0 0-.98-.228h-2.188q.833-6.541.834-7.041 0-1.584-.96-1.813a2.5 2.5 0 0 0-.456-.043m-59.084.012q-1.147 0-1.522 1.375a7.6 7.6 0 0 0-.207 1.084l-.918 6.437a60 60 0 0 1-2.103-.042h-.21q-1.186 0-1.562.875a1.8 1.8 0 0 0-.125.687q0 1.375 1.438 1.5h2.125q-1.645 13.209-1.645 13.813c0 .425.029.83.077 1.222-.384.09-.77.291-1.16.611q-.897.771-5.917 4.542l2.104-15.354V24q.021-.292.021-.459 0-1.458-.937-1.791a1.6 1.6 0 0 0-.5-.084q-1.313 0-1.563 1.397l-.043.271q0 .042-.02.25a42 42 0 0 1-.355 3.895q-.978 6.75-2.916 8a2.1 2.1 0 0 1-.959.334q-2.29-.042-2.29-4.542 0-2.083.708-6.73.167-1.041.166-1.353-.041-1.605-1.375-1.625-1.479.145-2.062 2.666a32.2 32.2 0 0 0-.729 6.687c0 1.589.155 2.932.444 4.06a8 8 0 0 0-.569.378q-1.166.834-1.771.98a2.5 2.5 0 0 1-.438.041q-1.041 0-1.646-1.562a14 14 0 0 0-.125-.397q-.25-.75-.25-4.978 0-1.272.021-3.375a83 83 0 0 0 .022-1.21q0-1.52-1.272-2.457a3.2 3.2 0 0 0-1.896-.625q-2.937.021-4.52 2.979.104-1.042.104-1.437 0-1.584-.959-1.813a2.5 2.5 0 0 0-.457-.041q-1.418 0-1.709 2.187 0 .126-.022.25c-.947 7.14-.845 6.453-1.421 10.823a7 7 0 0 0-.66.427q-1.168.834-1.772.979a2.5 2.5 0 0 1-.438.041q-1.519.001-1.853-2.645a10 10 0 0 1-.063-1.083q0-1.5.354-7.147l.062-.562q.084-.834.084-1.25 0-1.626-1.125-1.75a.6.6 0 0 0-.146-.02q-1.354.042-1.604 1.354l-.043.312q-.249 3.5-.416 4.771-1.104 7.668-3.959 7.688-2.207-.042-2.207-4.375 0-2.084.729-6.75.187-1.146.187-1.48-.041-1.605-1.521-1.625-1.187 0-1.832 2.292a14 14 0 0 1-.084.354 31.7 31.7 0 0 0-.729 6.709c0 1.553.148 2.867.424 3.98-.457.069-.905.28-1.342.659q-.648.524-5.882 4.523l2.324-16.625q-.042-1.76-1.402-1.781-1.508 0-1.739 2.367-.021.105-.021.23-.063.9-2.723 18.467l-5.025 3.77q-1.465 1.089-1.967 1.717-.9 1.215-.9 3.1 0 1.8 1.443 3.245 1.466 1.445 3.392 1.444 3.875 0 4.838-3.686.126-.46.188-.941l.963-6.932q5.067-3.79 8.146-6.385c.3-.255.527-.515.707-.777q.855 1.23 2.221 1.645a5.2 5.2 0 0 0 1.418.187q3.186-.02 5.02-2.27 1.104 2.334 3.687 2.354c.917 0 1.838-.235 2.762-.686-.531 4.048-1.7 12.845-1.7 12.936q0 1.062.688 1.625.375.291.834.291.917 0 1.521-1.02.355-.604.416-1.355.375-4.875 1.479-12.103.105-.771.23-1.5l.188-1.104q.458-2.563 2.041-6.293 1.834-4.292 3.021-4.687a.7.7 0 0 1 .207-.041q.48.104.5 2.312 0 .834-.04 1.979-.022.791-.022 1.146 0 6.063 2.23 7.854 1.083.854 2.645.855 1.918 0 3.855-1.313a7 7 0 0 0 .608-.457 4 4 0 0 0 1.912 1.249 5.2 5.2 0 0 0 1.418.187q1.583 0 2.791-.562-.291 1.77-.563 3.646-4.812 3.561-5 3.77-1.458 1.083-1.937 1.687-.938 1.188-.938 3.084 0 1.79 1.438 3.229 1.48 1.437 3.396 1.437 1.396 0 2.729-.875 1.896-1.27 2.25-3.728l.937-6.854q6.021-4.605 8.125-6.396c.152-.13.278-.258.399-.387q.178.32.392.615 1.312 1.71 3.375 1.73 2.105 0 3.981-1.355c.152-.115.27-.228.4-.342.823.965 1.999 1.486 3.537 1.551h.332q4.875 0 9.272-4.334a23.1 23.1 0 0 0 4.75-6.77q1.354-.105 2.375-.605-.27 1.084-.397 3.355-.04.709-.04 1.354 0 3.375.79 4.771 1.084 2.375 3.397 2.667.271.02.521.021 2.104-.001 3.979-1.355 1.563-1.209 1.625-2.354 0-.542-.541-.959a1.1 1.1 0 0 0-.625-.207q-.626 0-1.918.854-1.457.853-2.082.916-1.083 0-1.688-1.583-.48-1.333-.48-3.521.001-2.458 1.105-6.312.146-.522.145-.647.001-.374-.604-.77a2.13 2.13 0 0 0-1.187-.355q-.52 0-1.688.793-1.041.73-1.625 1 .272-1.083.272-1.793 0-1.645-1.5-2.562a3.7 3.7 0 0 0-1.938-.541q-1.979 0-2.896 1.562a3.3 3.3 0 0 0-.459 1.688q0 2.687 2.187 3.896l.334.166q-2.457 4.312-5.54 6.625-2.584 1.896-5.063 1.896-1.854 0-2.459-1.542a4 4 0 0 1-.229-1.375q0-.416.063-.833.541.104 1.103.104 2.272 0 4.375-1.229 3.125-1.834 3.354-5.271a7 7 0 0 0 .021-.521q0-2.313-1.937-3.438-1.146-.666-2.563-.666-3.02 0-5.187 3.375-1.792 2.791-2.21 6.354-.103.79-.103 1.5c0 .859.087 1.611.22 2.304a6 6 0 0 0-.616.426q-1.042.812-1.604.957a2 2 0 0 1-.478.063q-.959 0-1.543-1.25a4.1 4.1 0 0 1-.395-1.791q0-1.522 1.625-14.022h2.582q1.084 0 1.563-.791.187-.334.187-.709 0-.855-.728-1.291a2 2 0 0 0-.979-.229h-2.187q.832-6.542.832-7.042 0-1.584-.957-1.813a2.6 2.6 0 0 0-.46-.041m41.834 3.176q.77 0 1.103.918.084.229.084.394 0 3.251-3.459 7.98-1.25 1.731-2.5 3 .229-8.541 2.604-11.23.938-1.041 2.168-1.062m-103.44 4.33a2.85 2.85 0 0 0-2.847 2.85 2.85 2.85 0 0 0 2.847 2.847 2.85 2.85 0 0 0 2.85-2.848 2.85 2.85 0 0 0-2.85-2.85m109.936 0a2.85 2.85 0 0 0-2.848 2.85 2.85 2.85 0 0 0 2.848 2.847 2.85 2.85 0 0 0 2.85-2.848 2.85 2.85 0 0 0-2.85-2.85M150.67 23q.625 0 .771.563a1 1 0 0 1 .041.271q-.02.5-.478 1.562-1.167-.52-1.188-1.562 0-.626.604-.793a.8.8 0 0 1 .25-.041m-9.063 1.229q.834.041 1 1.23.043.23.043.437 0 1.584-1.418 2.729-1.333 1.062-3.103 1.062-.541 0-.979-.083 1.042-3.48 2.895-4.791.064-.043.105-.063a3.8 3.8 0 0 1 1.457-.521m59.75.343q1.022.021 1.022 1.625t-1.438 2.772q-1.29 1.062-3.021 1.062-.48 0-1-.125 1.084-3.563 2.98-4.834.728-.48 1.457-.5M114.65 46.604l-.355 2.562q-.312 2.417-1.354 2.813a1.7 1.7 0 0 1-.666.125q-.978 0-1.334-.917a2 2 0 0 1-.125-.687q.022-.958 1.522-2.125.167-.146 2.312-1.771m-51.156.593-.355 2.555q-.314 2.388-1.319 2.828a1.9 1.9 0 0 1-.713.125q-.983 0-1.34-.922a1.8 1.8 0 0 1-.124-.67q.02-1.004 1.527-2.134z" class="jp-icon3" style="stroke:none;stroke-width:4;stroke-linecap:butt;stroke-linejoin:miter;stroke-miterlimit:4;stroke-dasharray:none;stroke-dashoffset:0;stroke-opacity:1;paint-order:stroke markers fill" transform="scale(.26458)"/>
  </g>
</svg>
